<svg id="icons" enable-background="new 0 0 64 64" height="512" viewBox="0 0 64 64" width="512" xmlns="http://www.w3.org/2000/svg"><path d="m.996 24.783h8.01v.998c0 1.654 1.346 3 3 3h.001.001 1.935c2.019 5.256 7.104 9.002 13.062 9.002h20.994c.001 0 .002-.001.003-.001s.002.001.003.001c2.757 0 5-2.243 5-5 0 0 0-.001 0-.002 0 0 0 0 0-.001l-.002-1.994c0-.677-.039-1.345-.102-2.005h.094.001.001c1.654 0 3-1.346 3-3v-.998h7.008c.553 0 1-.447 1-1s-.447-1-1-1h-7.008v-1c0-1.629-1.307-2.952-2.926-2.992-.026-.002-.049-.016-.076-.016h-3.791c-3.801-5.428-10.09-8.992-17.205-8.992h-4.994c-2.443 0-4.818.636-6.924 1.835l-3.106-3.106c.528-1.114.344-2.485-.577-3.406-1.17-1.17-3.072-1.17-4.242 0l-2.83 2.828c-1.17 1.17-1.17 3.072-.001 4.241.566.568 1.319.881 2.121.882h.002c.454 0 .887-.11 1.284-.301l2.891 2.891c-.694.97-1.257 2.021-1.682 3.129h-1.934c-.027 0-.049.014-.076.016-1.619.04-2.926 1.363-2.926 2.992v1h-8.01c-.553 0-1 .447-1 1s.448.999 1.001.999zm11.012 1.998h-.002c-.552 0-1-.448-1-1v-.998h2.049c.049.68.138 1.348.28 1.998zm40.988 0h-.002-.386c-.132-.679-.296-1.345-.491-1.998h1.879v.998c0 .552-.448 1-1 1zm-.039-6.006c.014.001.025.008.039.008.552 0 1 .448 1 1v1h-2.587c-.284-.688-.598-1.359-.951-2.008zm-32.316-4.355c.81-.81 2.055-.979 2.956-.979 2.552 0 5.913 1.362 7.651 3.101 2.339 2.339 2.339 6.146 0 8.484-1.134 1.134-2.641 1.758-4.244 1.758s-3.109-.624-4.242-1.758c-1.244-1.244-2.36-3.413-2.843-5.525-.516-2.256-.252-4.107.722-5.081zm-1.414-1.414c-.237.237-.438.508-.623.793l-4.328-4.328 1.414-1.414 4.327 4.325c-.287.184-.554.388-.79.624zm-7.78-3.949c-.267 0-.518-.104-.707-.295-.39-.39-.39-1.024 0-1.414l2.828-2.828c.391-.391 1.023-.391 1.414 0s.391 1.025 0 1.416l-2.828 2.828c-.188.188-.439.293-.707.293.001 0 .001 0 0 0zm6.358 6.771c-.233 1.196-.186 2.587.164 4.117.569 2.491 1.864 4.979 3.379 6.494 1.51 1.512 3.52 2.344 5.656 2.344 2.138 0 4.146-.832 5.658-2.344 3.119-3.119 3.119-8.193 0-11.313-2.136-2.136-5.948-3.687-9.065-3.687-.546 0-1.052.063-1.536.157l-.502-.502c1.68-.857 3.537-1.313 5.445-1.313h4.994c10.479 0 19.004 8.525 19.004 19.004v.001l.002 1.994v.001c0 1.654-1.346 3-3 3-.001 0-.002.001-.003.001s-.002-.001-.003-.001h-20.994c-6.617 0-12-5.383-12-12 0-2.395.724-4.735 2.051-6.705zm-5.799 2.955c.014 0 .025-.007.039-.008h1.3c-.146.66-.249 1.33-.298 2.008h-2.041v-1c0-.552.448-1 1-1z"/><path d="m55.986 42.787c-.553 0-1 .447-1 1 0 1.103-.897 2-2 2-.553 0-1 .447-1 1v3h-1.065c-.495-3.939-3.858-7-7.931-7-.553 0-1 .447-1 1 0 1.103-.897 2-2 2-.553 0-1 .447-1 1v3h-1.065c-.495-3.939-3.858-7-7.931-7-.553 0-1 .447-1 1 0 1.103-.897 2-2 2-.553 0-1 .447-1 1v3h-1.062c-.495-3.939-3.858-7-7.931-7-.553 0-1 .447-1 1 0 1.103-.897 2-2 2-.553 0-1 .447-1 1v3h-1.065c-.495-3.939-3.858-7-7.931-7-.553 0-1 .447-1 1 0 1.103-.897 2-2 2-.553 0-1 .447-1 1v4 7.986c0 .553.447 1 1 1h61.971c.553 0 1-.447 1-1v-7.938c.001-.018.01-.031.01-.049 0-4.41-3.589-7.999-8-7.999zm5.991 9v2.004h-59.971v-2.004zm-59.971 4.004h59.971v1.982h-59.971zm51.98-8.145c1.377-.358 2.457-1.426 2.838-2.793 2.583.363 4.64 2.374 5.072 4.935h-7.91zm-12.996 0c1.377-.358 2.457-1.426 2.838-2.793 2.583.363 4.64 2.374 5.072 4.935h-7.91zm-12.996 0c1.377-.358 2.457-1.426 2.838-2.793 2.583.363 4.64 2.374 5.072 4.935h-7.91zm-12.992 0c1.377-.358 2.457-1.426 2.838-2.793 2.583.363 4.64 2.374 5.072 4.935h-7.91zm-10.158-2.793c2.583.363 4.64 2.374 5.072 4.935h-7.91v-2.142c1.377-.359 2.457-1.426 2.838-2.793z"/></svg>