<?xml version="1.0" encoding="iso-8859-1"?>
<!-- Generator: Adobe Illustrator 19.0.0, SVG Export Plug-In . SVG Version: 6.00 Build 0)  -->
<svg version="1.1" id="Capa_1" xmlns="http://www.w3.org/2000/svg" xmlns:xlink="http://www.w3.org/1999/xlink" x="0px" y="0px"
	 viewBox="0 0 511.311 511.311" style="enable-background:new 0 0 511.311 511.311;" xml:space="preserve">
<g transform="translate(0 -1)">
	<g>
		<g>
			<path d="M134.257,94.488c0.431,0.001,0.861-0.031,1.287-0.096c39.663-5.724,79.693-8.527,119.767-8.388
				c4.713,0,8.533-3.82,8.533-8.533s-3.82-8.533-8.533-8.533c-40.927-0.138-81.81,2.729-122.317,8.579
				c-4.412,0.667-7.566,4.62-7.235,9.071C126.091,91.038,129.794,94.481,134.257,94.488z"/>
			<polygon points="134.257,94.488 134.257,94.488 134.257,94.488 			"/>
			<path d="M508.669,234.654l2.4-16.942c1.923-13.979-7.807-26.885-21.775-28.883l-67.041-9.471c0.896-2.786,1.932-5.483,3.076-8.13
				c2.967-0.253,5.582-2.047,6.886-4.723c1.305-2.676,1.107-5.841-0.521-8.334c-2.41-3.767-4.511-7.722-6.282-11.828l54.374,7.678
				c1.16,0.159,2.329,0.239,3.5,0.238c12.76,0.009,23.581-9.372,25.383-22.004l2.4-16.942c1.923-13.979-7.807-26.885-21.775-28.883
				l-67.041-9.471c1.451-4.695,3.29-9.261,5.5-13.65c1.218-2.35,1.277-5.132,0.159-7.531c-1.118-2.399-3.285-4.144-5.868-4.723
				c-54.847-11.297-110.737-16.744-166.733-16.25c-55.994-0.485-111.883,4.962-166.729,16.25c-2.583,0.579-4.75,2.324-5.868,4.723
				c-1.118,2.399-1.059,5.181,0.159,7.531c2.222,4.414,4.07,9.007,5.523,13.731L22.04,86.425
				C8.044,88.417-1.702,101.357,0.248,115.359l2.383,16.867c1.799,12.651,12.639,22.046,25.417,22.029
				c1.178-0.001,2.354-0.08,3.521-0.237l53.609-7.592c-1.766,4.078-3.856,8.007-6.25,11.75c-1.683,2.631-1.792,5.973-0.283,8.708
				c1.378,2.465,3.868,4.106,6.677,4.399c1.146,2.655,2.18,5.362,3.076,8.157l-66.357,9.386
				c-13.996,1.992-23.742,14.932-21.792,28.933l2.383,16.867c1.799,12.651,12.639,22.046,25.417,22.029
				c1.178-0.001,2.354-0.08,3.521-0.237l53.609-7.592c-1.766,4.078-3.856,8.007-6.25,11.75c-1.683,2.631-1.792,5.973-0.283,8.708
				c1.379,2.464,3.869,4.105,6.677,4.4c1.146,2.655,2.18,5.361,3.076,8.156l-66.357,9.386
				c-13.996,1.992-23.742,14.932-21.792,28.933l2.383,16.867c1.799,12.651,12.639,22.046,25.417,22.029
				c1.178-0.001,2.354-0.08,3.521-0.237l53.609-7.592c-1.766,4.078-3.856,8.007-6.25,11.75c-1.683,2.632-1.792,5.973-0.283,8.708
				c1.379,2.465,3.869,4.106,6.678,4.402c1.145,2.655,2.179,5.36,3.074,8.154l-66.357,9.386
				c-13.996,1.992-23.742,14.932-21.792,28.933l2.383,16.867c1.799,12.651,12.639,22.046,25.417,22.029
				c1.178-0.001,2.354-0.08,3.521-0.237l53.609-7.592c-1.766,4.078-3.856,8.007-6.25,11.75c-1.683,2.631-1.792,5.973-0.283,8.708
				c1.88,3.361,5.75,5.081,9.504,4.225c54.923-11.799,110.99-17.446,167.163-16.838c56.174-0.608,112.242,5.039,167.166,16.837
				c0.644,0.153,1.304,0.23,1.967,0.229h0.083c3.125-0.002,5.999-1.711,7.493-4.456c1.494-2.745,1.369-6.086-0.326-8.711
				c-2.41-3.767-4.511-7.722-6.282-11.828l54.374,7.678c13.973,1.914,26.873-7.807,28.883-21.767l2.4-16.942
				c1.923-13.979-7.807-26.885-21.775-28.883l-67.041-9.471c0.896-2.786,1.932-5.483,3.076-8.13
				c2.967-0.253,5.582-2.047,6.886-4.723c1.305-2.676,1.107-5.841-0.521-8.334c-2.41-3.767-4.511-7.722-6.282-11.828l54.374,7.678
				c13.973,1.914,26.873-7.807,28.883-21.767l2.4-16.942c1.923-13.979-7.807-26.885-21.775-28.883l-67.041-9.471
				c0.896-2.786,1.932-5.483,3.076-8.13c2.967-0.253,5.582-2.047,6.886-4.723c1.305-2.676,1.107-5.841-0.521-8.334
				c-2.41-3.767-4.511-7.722-6.282-11.828l54.374,7.678C493.759,258.336,506.659,248.614,508.669,234.654z M418.447,93.658
				l68.489,9.676c4.647,0.68,7.874,4.982,7.225,9.633l-2.392,16.925c-0.682,4.649-4.988,7.876-9.642,7.225l-62.258-8.793
				c-1.543-6.891-2.355-13.925-2.425-20.986C417.473,102.761,417.808,98.191,418.447,93.658z M107.675,83.119
				c-0.008-0.065,0.02-0.124,0.011-0.19c-0.023-0.161-0.126-0.284-0.158-0.443c-1.198-5.777-2.855-11.448-4.955-16.961
				c50.357-9.436,101.505-14.008,152.738-13.654c51.234-0.36,102.383,4.211,152.741,13.65c-2.069,5.434-3.707,11.022-4.899,16.714
				c-0.048,0.218-0.186,0.391-0.218,0.616c-0.012,0.089,0.025,0.168,0.015,0.256c-3.866,18.065-3.37,36.79,1.445,54.625
				c0.05,0.23,0.094,0.448,0.162,0.672c1.111,4.161,2.47,8.252,4.069,12.251c-0.64-0.126-1.326-0.232-1.97-0.357
				c-2.776-0.534-5.623-1.033-8.469-1.535c-3.45-0.613-6.917-1.215-10.465-1.781c-2.333-0.371-4.696-0.722-7.068-1.072
				c-4.198-0.623-8.443-1.217-12.759-1.775c-2.067-0.267-4.141-0.525-6.232-0.777c-4.703-0.567-9.464-1.095-14.285-1.583
				c-1.937-0.197-3.866-0.396-5.82-0.581c-5.013-0.473-10.082-0.902-15.206-1.285c-1.916-0.146-3.814-0.304-5.742-0.438
				c-5.18-0.36-10.416-0.66-15.684-0.935c-1.956-0.102-3.892-0.225-5.858-0.315c-5.358-0.245-10.768-0.42-16.196-0.576
				c-1.894-0.054-3.768-0.139-5.669-0.182c-7.255-0.164-14.552-0.25-21.892-0.258c-7.344,0-14.647,0.086-21.908,0.259
				c-1.796,0.041-3.567,0.121-5.358,0.172c-5.55,0.157-11.078,0.338-16.556,0.589c-1.803,0.083-3.578,0.196-5.373,0.289
				c-5.464,0.282-10.893,0.595-16.262,0.97c-1.704,0.119-3.381,0.259-5.076,0.388c-5.39,0.408-10.723,0.859-16,1.353
				c-1.671,0.159-3.321,0.329-4.981,0.497c-5.157,0.521-10.247,1.085-15.268,1.692c-1.77,0.214-3.529,0.434-5.279,0.658
				c-4.683,0.602-9.292,1.243-13.829,1.922c-2.043,0.303-4.081,0.606-6.095,0.924c-3.901,0.62-7.713,1.279-11.494,1.955
				c-2.548,0.452-5.103,0.898-7.595,1.376c-0.735,0.142-1.518,0.263-2.248,0.407c1.622-4.056,2.996-8.207,4.116-12.43l0.016-0.067
				c2.736-10.045,4.123-20.409,4.122-30.819C110.222,99.198,109.361,91.082,107.675,83.119z M106.106,240.624l0.016-0.067
				c2.736-10.045,4.123-20.409,4.122-30.819c-0.022-8.14-0.883-16.255-2.569-24.219c-0.008-0.065,0.02-0.124,0.011-0.19
				c-0.023-0.161-0.126-0.285-0.158-0.443c-1.194-5.753-2.843-11.403-4.932-16.894c0.789-0.16,1.522-0.342,2.317-0.499
				c1.85-0.364,3.774-0.697,5.658-1.046c3.789-0.709,7.614-1.403,11.534-2.052c3.117-0.514,6.305-0.991,9.497-1.467
				c2.862-0.429,5.731-0.853,8.653-1.252c3.709-0.504,7.472-0.977,11.265-1.431c2.617-0.314,5.253-0.617,7.906-0.907
				c3.968-0.432,7.972-0.839,12.012-1.22c2.718-0.254,5.464-0.486,8.216-0.716c3.982-0.333,7.977-0.654,12.018-0.934
				c3.129-0.216,6.297-0.395,9.461-0.58c3.734-0.218,7.461-0.443,11.233-0.617c4.027-0.183,8.1-0.31,12.169-0.442
				c3.008-0.099,5.998-0.226,9.024-0.296c7.205-0.164,14.456-0.251,21.751-0.262c7.308,0,14.571,0.088,21.79,0.263
				c2.913,0.067,5.789,0.191,8.685,0.284c4.213,0.135,8.427,0.268,12.594,0.458c3.591,0.165,7.136,0.381,10.691,0.587
				c3.388,0.195,6.779,0.388,10.128,0.62c3.794,0.264,7.543,0.567,11.284,0.877c3.056,0.253,6.103,0.511,9.118,0.795
				c3.753,0.353,7.471,0.731,11.154,1.133c2.998,0.326,5.97,0.666,8.915,1.023c3.469,0.418,6.914,0.849,10.311,1.309
				c3.31,0.449,6.561,0.929,9.796,1.417c2.838,0.427,5.68,0.851,8.457,1.307c4.293,0.709,8.483,1.465,12.618,2.245
				c1.563,0.293,3.165,0.568,4.704,0.87c0.849,0.168,1.631,0.362,2.472,0.533c-2.057,5.412-3.687,10.976-4.875,16.643
				c-0.048,0.218-0.186,0.391-0.218,0.615c-0.012,0.089,0.025,0.168,0.015,0.256c-3.866,18.065-3.37,36.79,1.445,54.625
				c0.05,0.23,0.094,0.448,0.162,0.672c1.111,4.161,2.47,8.252,4.069,12.251c-0.64-0.126-1.326-0.232-1.97-0.357
				c-2.776-0.534-5.623-1.033-8.469-1.535c-3.45-0.613-6.917-1.215-10.465-1.781c-2.333-0.371-4.696-0.722-7.068-1.072
				c-4.198-0.623-8.443-1.217-12.759-1.775c-2.067-0.267-4.141-0.525-6.232-0.777c-4.703-0.567-9.464-1.095-14.285-1.583
				c-1.937-0.197-3.866-0.396-5.82-0.581c-5.013-0.473-10.082-0.902-15.206-1.285c-1.916-0.146-3.814-0.304-5.742-0.438
				c-5.18-0.36-10.416-0.66-15.684-0.935c-1.956-0.102-3.892-0.225-5.858-0.315c-5.358-0.245-10.768-0.42-16.196-0.576
				c-1.894-0.054-3.768-0.139-5.669-0.182c-7.255-0.164-14.552-0.25-21.892-0.258c-7.344,0-14.647,0.086-21.908,0.259
				c-1.796,0.041-3.567,0.121-5.358,0.172c-5.55,0.157-11.078,0.338-16.556,0.589c-1.803,0.083-3.578,0.196-5.373,0.289
				c-5.464,0.282-10.893,0.595-16.262,0.97c-1.704,0.119-3.381,0.259-5.076,0.387c-5.39,0.408-10.723,0.859-16,1.353
				c-1.671,0.159-3.321,0.329-4.981,0.497c-5.157,0.521-10.247,1.085-15.268,1.692c-1.77,0.214-3.529,0.433-5.279,0.658
				c-4.683,0.602-9.292,1.243-13.829,1.922c-2.043,0.303-4.081,0.606-6.095,0.924c-3.901,0.62-7.713,1.279-11.494,1.955
				c-2.548,0.452-5.103,0.898-7.595,1.376c-0.735,0.142-1.518,0.263-2.248,0.407C103.612,248.998,104.987,244.847,106.106,240.624z
				 M90.735,435.6l-61.516,8.713c-4.67,0.65-8.992-2.586-9.683-7.25l-2.383-16.854c-0.668-4.673,2.574-9.004,7.246-9.679
				l67.792-9.589c0.63,4.505,0.96,9.048,0.987,13.597C93.108,421.625,92.29,428.685,90.735,435.6z M90.735,333.2l-61.516,8.713
				c-4.67,0.65-8.992-2.586-9.683-7.25l-2.383-16.854c-0.668-4.673,2.574-9.004,7.246-9.679l67.792-9.589
				c0.63,4.505,0.96,9.048,0.987,13.597C93.108,319.225,92.29,326.285,90.735,333.2z M90.735,230.8l-61.516,8.713
				c-4.67,0.65-8.992-2.586-9.683-7.25l-2.383-16.854c-0.668-4.673,2.574-9.004,7.246-9.679l67.792-9.589
				c0.63,4.505,0.96,9.048,0.987,13.597C93.108,216.825,92.29,223.885,90.735,230.8z M90.735,128.4l-61.516,8.713
				c-4.67,0.648-8.991-2.586-9.683-7.25l-2.383-16.854c-0.668-4.673,2.574-9.004,7.246-9.679l67.792-9.589
				c0.63,4.505,0.96,9.048,0.987,13.597C93.108,114.425,92.29,121.485,90.735,128.4z M106.106,343.024l0.016-0.067
				c2.736-10.045,4.123-20.409,4.122-30.819c-0.022-8.14-0.883-16.255-2.569-24.219c-0.008-0.065,0.02-0.124,0.011-0.19
				c-0.023-0.161-0.126-0.284-0.158-0.442c-1.194-5.753-2.843-11.403-4.932-16.895c0.789-0.16,1.522-0.342,2.317-0.499
				c1.85-0.364,3.774-0.697,5.658-1.046c3.789-0.709,7.614-1.403,11.534-2.052c3.117-0.514,6.305-0.991,9.497-1.467
				c2.862-0.429,5.731-0.853,8.653-1.252c3.709-0.504,7.472-0.977,11.265-1.431c2.617-0.314,5.253-0.617,7.906-0.907
				c3.968-0.432,7.972-0.839,12.012-1.22c2.718-0.254,5.464-0.486,8.216-0.716c3.982-0.333,7.977-0.654,12.018-0.934
				c3.129-0.216,6.297-0.395,9.461-0.58c3.734-0.218,7.461-0.443,11.233-0.617c4.027-0.183,8.1-0.31,12.169-0.442
				c3.008-0.098,5.998-0.226,9.024-0.296c7.205-0.164,14.456-0.251,21.751-0.262c7.308,0,14.571,0.088,21.79,0.262
				c2.913,0.067,5.789,0.191,8.685,0.284c4.213,0.135,8.427,0.268,12.594,0.458c3.591,0.165,7.136,0.381,10.691,0.586
				c3.388,0.195,6.779,0.389,10.128,0.62c3.794,0.263,7.543,0.567,11.284,0.877c3.056,0.253,6.103,0.511,9.118,0.795
				c3.753,0.353,7.471,0.731,11.154,1.133c2.998,0.326,5.97,0.667,8.915,1.023c3.469,0.418,6.914,0.849,10.311,1.309
				c3.31,0.449,6.561,0.929,9.796,1.417c2.838,0.427,5.68,0.851,8.457,1.307c4.293,0.709,8.483,1.465,12.618,2.245
				c1.563,0.293,3.165,0.568,4.704,0.87c0.849,0.168,1.631,0.362,2.472,0.533c-2.057,5.411-3.687,10.974-4.875,16.639
				c-0.048,0.219-0.186,0.393-0.218,0.619c-0.012,0.089,0.025,0.168,0.015,0.256c-3.866,18.065-3.37,36.79,1.445,54.625
				c0.05,0.23,0.094,0.448,0.162,0.672c1.111,4.161,2.47,8.252,4.069,12.251c-0.64-0.126-1.326-0.232-1.97-0.357
				c-2.776-0.534-5.623-1.033-8.469-1.535c-3.45-0.613-6.917-1.215-10.465-1.781c-2.333-0.371-4.696-0.722-7.068-1.072
				c-4.198-0.623-8.443-1.217-12.759-1.775c-2.067-0.267-4.141-0.525-6.232-0.777c-4.703-0.567-9.464-1.095-14.285-1.583
				c-1.937-0.197-3.866-0.396-5.82-0.581c-5.013-0.473-10.082-0.902-15.206-1.285c-1.916-0.146-3.814-0.304-5.742-0.438
				c-5.18-0.36-10.416-0.66-15.684-0.935c-1.956-0.102-3.892-0.225-5.858-0.315c-5.358-0.245-10.768-0.42-16.196-0.576
				c-1.894-0.054-3.768-0.139-5.669-0.182c-7.255-0.164-14.552-0.25-21.892-0.258c-7.344,0-14.647,0.086-21.908,0.259
				c-1.796,0.041-3.567,0.121-5.358,0.172c-5.55,0.157-11.078,0.338-16.556,0.589c-1.803,0.083-3.578,0.196-5.373,0.289
				c-5.464,0.282-10.893,0.595-16.262,0.97c-1.704,0.12-3.381,0.259-5.076,0.388c-5.39,0.408-10.723,0.859-16,1.353
				c-1.671,0.159-3.321,0.329-4.981,0.497c-5.157,0.521-10.247,1.085-15.268,1.692c-1.77,0.214-3.529,0.434-5.279,0.658
				c-4.683,0.602-9.292,1.243-13.829,1.922c-2.043,0.303-4.081,0.606-6.095,0.924c-3.901,0.62-7.713,1.279-11.494,1.955
				c-2.548,0.452-5.103,0.898-7.595,1.376c-0.735,0.142-1.518,0.263-2.248,0.407C103.612,351.398,104.987,347.247,106.106,343.024z
				 M255.311,444.405c-51.417-0.356-102.752,4.148-153.321,13.45c1.622-4.056,2.996-8.207,4.116-12.43l0.016-0.067
				c2.736-10.045,4.123-20.409,4.122-30.82c-0.022-8.14-0.883-16.255-2.569-24.219c-0.008-0.065,0.02-0.124,0.011-0.19
				c-0.023-0.162-0.127-0.286-0.158-0.445c-1.194-5.752-2.843-11.401-4.932-16.892c0.789-0.16,1.522-0.342,2.317-0.499
				c1.85-0.364,3.774-0.697,5.658-1.046c3.789-0.709,7.614-1.403,11.534-2.052c3.117-0.514,6.305-0.991,9.497-1.467
				c2.862-0.429,5.731-0.853,8.653-1.252c3.709-0.504,7.472-0.977,11.265-1.431c2.617-0.314,5.253-0.617,7.906-0.907
				c3.968-0.432,7.972-0.839,12.012-1.22c2.718-0.254,5.464-0.486,8.216-0.716c3.982-0.333,7.977-0.654,12.018-0.934
				c3.129-0.216,6.297-0.395,9.461-0.58c3.734-0.218,7.461-0.443,11.233-0.617c4.027-0.183,8.1-0.31,12.169-0.442
				c3.008-0.098,5.998-0.226,9.024-0.296c7.205-0.164,14.456-0.251,21.751-0.262c7.308,0,14.571,0.087,21.79,0.262
				c2.913,0.067,5.789,0.191,8.685,0.284c4.213,0.135,8.427,0.268,12.594,0.458c3.591,0.165,7.136,0.381,10.691,0.586
				c3.388,0.195,6.779,0.388,10.128,0.62c3.794,0.263,7.543,0.567,11.284,0.877c3.056,0.253,6.103,0.511,9.118,0.795
				c3.753,0.353,7.471,0.731,11.154,1.133c2.998,0.326,5.97,0.667,8.915,1.023c3.469,0.418,6.914,0.849,10.311,1.309
				c3.31,0.449,6.561,0.929,9.796,1.417c2.838,0.427,5.68,0.851,8.457,1.307c4.293,0.709,8.483,1.465,12.618,2.245
				c1.563,0.293,3.165,0.568,4.704,0.87c0.849,0.168,1.631,0.362,2.472,0.533c-2.057,5.411-3.687,10.974-4.874,16.639
				c-0.048,0.219-0.186,0.393-0.218,0.619c-0.012,0.089,0.025,0.168,0.015,0.256c-3.866,18.065-3.37,36.79,1.445,54.625
				c0.05,0.23,0.094,0.448,0.162,0.672c1.111,4.161,2.47,8.252,4.069,12.251C358.06,448.55,306.726,444.047,255.311,444.405z
				 M486.936,410.534c4.647,0.68,7.874,4.982,7.225,9.633l-2.392,16.925c-0.686,4.646-4.99,7.871-9.642,7.225l-62.258-8.793
				c-1.543-6.891-2.355-13.925-2.425-20.986c0.029-4.577,0.363-9.147,1.003-13.68L486.936,410.534z M486.936,308.134
				c4.647,0.68,7.874,4.982,7.225,9.633l-2.392,16.925c-0.699,4.639-4.993,7.857-9.642,7.225l-62.258-8.793
				c-1.543-6.891-2.355-13.925-2.425-20.986c0.029-4.577,0.363-9.147,1.003-13.68L486.936,308.134z M419.87,230.724
				c-1.543-6.891-2.355-13.925-2.425-20.986c0.029-4.577,0.363-9.147,1.003-13.68l68.489,9.676c4.647,0.68,7.874,4.982,7.225,9.633
				l-2.392,16.925c-0.689,4.645-4.99,7.868-9.642,7.225L419.87,230.724z"/>
			<path d="M255.311,222.538c39.723-0.087,79.408,2.438,118.8,7.558c0.383,0.05,0.768,0.075,1.154,0.075
				c4.489-0.006,8.206-3.489,8.504-7.968s-2.926-8.424-7.375-9.023h0c-40.149-5.218-80.597-7.793-121.083-7.708
				c-4.713,0-8.533,3.82-8.533,8.533S250.598,222.538,255.311,222.538z"/>
			<path d="M134.257,299.288c0.431,0.001,0.861-0.031,1.288-0.096c39.663-5.724,79.693-8.527,119.767-8.388
				c4.713,0,8.533-3.82,8.533-8.533s-3.82-8.533-8.533-8.533c-40.927-0.138-81.81,2.729-122.317,8.579
				c-4.412,0.667-7.566,4.621-7.235,9.071C126.091,295.838,129.795,299.281,134.257,299.288z"/>
			<path d="M376.395,417.98L376.395,417.98c-40.149-5.218-80.597-7.793-121.083-7.708c-4.713,0-8.533,3.821-8.533,8.533
				s3.82,8.533,8.533,8.533c39.723-0.087,79.408,2.438,118.8,7.558c0.383,0.05,0.768,0.075,1.154,0.075
				c4.489-0.006,8.206-3.489,8.504-7.968C384.067,422.524,380.843,418.579,376.395,417.98z"/>
		</g>
	</g>
</g>
<g>
</g>
<g>
</g>
<g>
</g>
<g>
</g>
<g>
</g>
<g>
</g>
<g>
</g>
<g>
</g>
<g>
</g>
<g>
</g>
<g>
</g>
<g>
</g>
<g>
</g>
<g>
</g>
<g>
</g>
</svg>
